<svg xmlns="http://www.w3.org/2000/svg" xmlns:xlink="http://www.w3.org/1999/xlink" width="200" height="200" class="icon" p-id="3885" t="1482784515484" version="1.1" viewBox="0 0 1024 1024"><defs><style type="text/css"/></defs><path fill="#FFF" d="M197.383626 242.520238C132.89777 317.538043 97.384579 413.240647 97.384579 512c0 228.256136 185.699132 413.957447 413.957447 413.957447s413.957447-185.701311 413.957446-413.957447-185.699132-413.957447-413.957446-413.957447c-98.759353 0-194.461957 35.513191-269.479762 99.999047-6.647285 5.714791-16.558298 5.126536-22.514928-1.183047a435.0976 435.0976 0 0 0-23.122791 23.168545c6.285617 5.958809 6.867336 15.85457 1.159081 22.49314zM495.659574 196.503421V147.06383a16.340426 16.340426 0 0 1 32.680852 0v49.483166c47.210757 2.459779 93.552204 15.510332 134.943591 38.179949a16.342604 16.342604 0 0 1 6.483881 22.181583c-0.074077 0.13726-0.163404 0.259268-0.241838 0.39217a301.245549 301.245549 0 0 1 31.676459 22.619506l45.609396-24.904987a16.340426 16.340426 0 0 1 22.172868 22.170689l-24.904987 45.611575a300.955779 300.955779 0 0 1 22.619506 31.678638c0.132902-0.078434 0.257089-0.167762 0.394349-0.241838a16.340426 16.340426 0 0 1 22.181583 6.483881c22.667438 41.391387 35.717991 87.732834 38.179949 134.941412H876.93617c9.026451 0 16.340426 7.316153 16.340426 16.340426s-7.313974 16.340426-16.340426 16.340426h-49.439591c-8.255183 161.218996-137.937157 290.90097-299.156153 299.156153V876.93617a16.340426 16.340426 0 0 1-32.680852 0v-49.483166c-47.210757-2.459779-93.550026-15.512511-134.941412-38.179949a16.342604 16.342604 0 0 1-6.483881-22.181583c0.074077-0.135081 0.161226-0.257089 0.239659-0.387812a301.230298 301.230298 0 0 1-31.680817-22.621686l-45.605038 24.902809a16.331711 16.331711 0 0 1-19.386281-2.788766 16.333889 16.333889 0 0 1-2.786587-19.384102l24.90063-45.605038a301.112647 301.112647 0 0 1-22.623864-31.680817c-0.130723 0.076255-0.252732 0.165583-0.385634 0.23748a16.336068 16.336068 0 0 1-22.181583-6.48388c-22.669617-41.391387-35.717991-87.732834-38.179949-134.941413H147.06383a16.340426 16.340426 0 0 1 0-32.680851h49.439591C204.758604 334.440579 334.440579 204.758604 495.659574 196.503421z" p-id="3886"/><path fill="#F2EBD9" d="M647.584136 263.39023C606.22543 240.740221 559.341481 228.765957 512 228.765957c-156.175251 0-283.234043 127.058791-283.234043 283.234043 0 47.341481 11.974264 94.22543 34.624273 135.584136 4.261583 7.780221 1.51857 17.497328-6.096068 21.941924a301.112647 301.112647 0 0 0 22.623864 31.680817l146.347029-268.017839 0.056647-0.1024 0.091507-0.165583c0.028323-0.050111 0.065362-0.093685 0.093685-0.143795 0.305021-0.544681 0.644902-1.069753 1.017463-1.583932a16.543047 16.543047 0 0 1 1.664545-1.984817c0.525072-0.522894 1.056681-0.969532 1.599183-1.390026 0.135081-0.104579 0.27234-0.202621 0.4096-0.302842 0.509821-0.368204 1.034894-0.708085 1.575217-1.010928 0.052289-0.030502 0.098043-0.06754 0.150332-0.095864l0.172119-0.093685 268.104987-146.394962a300.927455 300.927455 0 0 0-31.676459-22.619506 16.327353 16.327353 0 0 1-21.939745 6.089532zM597.687013 590.900289l-0.098043 0.178656c-0.028323 0.052289-0.06754 0.100221-0.098042 0.15251a16.253277 16.253277 0 0 1-1.013107 1.577396c-0.098043 0.135081-0.193906 0.270162-0.296306 0.403064a16.270706 16.270706 0 0 1-1.379132 1.590468 16.222774 16.222774 0 0 1-1.588289 1.376953c-0.135081 0.104579-0.27234 0.202621-0.411779 0.302843a16.098587 16.098587 0 0 1-1.562145 1.004391c-0.056647 0.032681-0.104579 0.074077-0.161225 0.104579l-0.189549 0.1024-268.096273 146.388425a300.777123 300.777123 0 0 0 31.680817 22.621686c4.446774-7.610281 14.161702-10.355472 21.941924-6.09389C417.77457 783.259779 464.658519 795.234043 512 795.234043c156.17743 0 283.234043-127.058791 283.234043-283.234043 0-47.339302-11.972085-94.223251-34.624273-135.581957-4.259404-7.778043-1.51857-17.490791 6.089532-21.937566a301.273872 301.273872 0 0 0-22.619506-31.678639l-146.392783 268.098451z" p-id="3887"/><path fill="#98D9D5" d="M556.256409 579.366128l-111.622537-111.624715-134.263829 245.888544z" p-id="3888"/><path fill="#F2484B" d="M579.366128 556.256409l134.266008-245.886366-245.888545 134.263829z" p-id="3889"/><path fill="#F2484B" d="M512 32.680851C247.701243 32.680851 32.680851 247.701243 32.680851 512s215.020391 479.319149 479.319149 479.319149 479.319149-215.020391 479.319149-479.319149S776.298757 32.680851 512 32.680851z m-0.657974 925.957447c-246.278536 0-446.638298-200.359762-446.638298-446.638298 0-106.572255 38.319387-209.841566 107.896919-290.783319a16.340426 16.340426 0 0 1 23.044357-1.738621c0.2048 0.176477 0.385634 0.368204 0.579541 0.551217a434.284936 434.284936 0 0 1 23.122791-23.168545c-0.176477-0.185191-0.361668-0.361668-0.52943-0.555575a16.340426 16.340426 0 0 1 1.738622-23.044357C301.50046 103.678911 404.76977 65.361702 511.342026 65.361702c246.278536 0 446.638298 200.359762 446.638297 446.638298s-200.36194 446.638298-446.638297 446.638298z" p-id="3890"/><path fill="#082947" d="M874.038468 149.961532C777.333651 53.256715 648.760647 0 512 0S246.666349 53.256715 149.961532 149.961532C53.256715 246.66417 0 375.239353 0 512c0 136.760647 53.256715 265.333651 149.961532 362.038468S375.239353 1024 512 1024s265.333651-53.256715 362.038468-149.961532S1024 648.760647 1024 512c0-136.760647-53.256715-265.33583-149.961532-362.038468zM512 991.319149c-264.298757 0-479.319149-215.020391-479.319149-479.319149S247.701243 32.680851 512 32.680851s479.319149 215.020391 479.319149 479.319149-215.020391 479.319149-479.319149 479.319149z" p-id="3891"/><path fill="#082947" d="M511.342026 65.361702c-106.572255 0-209.839387 38.317209-290.78332 107.896919a16.340426 16.340426 0 0 0-1.738621 23.044358c0.167762 0.196085 0.352953 0.370383 0.52943 0.555574 5.95663 6.309583 15.867643 6.897838 22.514928 1.183047C316.880068 133.555745 412.582672 98.042553 511.342026 98.042553c228.258315 0 413.957447 185.701311 413.957446 413.957447s-185.699132 413.957447-413.957446 413.957447-413.957447-185.701311-413.957447-413.957447c0-98.759353 35.513191-194.461957 99.999047-269.479762 5.708255-6.63857 5.126536-16.534332-1.159081-22.49314-0.193906-0.183013-0.37474-0.37474-0.579541-0.551217a16.346962 16.346962 0 0 0-23.044357 1.738621C103.023115 302.158434 64.703728 405.427745 64.703728 512c0 246.278536 200.359762 446.638298 446.638298 446.638298s446.638298-200.359762 446.638297-446.638298-200.36194-446.638298-446.638297-446.638298z" p-id="3892"/><path fill="#082947" d="M760.60977 376.418043C783.261957 417.776749 795.234043 464.660698 795.234043 512c0 156.175251-127.056613 283.234043-283.234043 283.234043-47.341481 0-94.22543-11.974264-135.584136-34.624273-7.780221-4.261583-17.495149-1.516391-21.941924 6.09389-0.076255 0.132902-0.165583 0.252732-0.239659 0.387812a16.340426 16.340426 0 0 0 6.483881 22.181583c41.391387 22.667438 87.730655 35.72017 134.941412 38.179949V876.93617a16.340426 16.340426 0 0 0 32.680852 0v-49.439591c161.218996-8.255183 290.90097-137.937157 299.156153-299.156153H876.93617c9.026451 0 16.340426-7.316153 16.340426-16.340426s-7.313974-16.340426-16.340426-16.340426h-49.483166c-2.461957-47.208579-15.512511-93.550026-38.179949-134.941412a16.340426 16.340426 0 0 0-22.181583-6.483881c-0.13726 0.074077-0.259268 0.163404-0.394349 0.241838-7.603745 4.448953-10.344579 14.161702-6.087353 21.941924z" p-id="3893"/><path fill="#082947" d="M433.095353 426.315166l-0.172119 0.093685c-0.052289 0.028323-0.098043 0.06754-0.150332 0.095864a16.34914 16.34914 0 0 0-1.575217 1.010928c-0.13726 0.100221-0.276698 0.198264-0.4096 0.302842a16.492936 16.492936 0 0 0-1.575217 1.363881 16.333889 16.333889 0 0 0-1.390025 1.601362c-0.1024 0.132902-0.200443 0.270162-0.298486 0.407421a16.275064 16.275064 0 0 0-1.017463 1.583932c-0.028323 0.050111-0.065362 0.093685-0.093685 0.143796l-0.091507 0.165583-0.056647 0.1024-146.347029 268.017838-24.90063 45.605038a16.340426 16.340426 0 0 0 22.172868 22.172868l45.605038-24.902808 268.028732-146.351387 0.257089-0.139439c0.056647-0.030502 0.106757-0.071898 0.161226-0.104579 0.535966-0.300664 1.054502-0.636187 1.562145-1.004391a16.222774 16.222774 0 0 0 2.000068-1.679796c0.505464-0.503285 0.954281-1.04143 1.379132-1.590468 0.1024-0.132902 0.198264-0.267983 0.296306-0.403064a15.99183 15.99183 0 0 0 1.013106-1.577395c0.030502-0.052289 0.069719-0.100221 0.098043-0.152511l0.098042-0.178655 146.392783-268.10063 24.904988-45.611575a16.340426 16.340426 0 0 0-22.172868-22.170689l-45.609396 24.904987-268.109345 146.394962z m123.161056 153.050962l-245.888545 134.263829 134.26383-245.888544 111.624715 111.624715z m23.109719-23.109719l-111.624715-111.624715 245.888544-134.26383-134.263829 245.888545z" p-id="3894"/><path fill="#082947" d="M147.06383 495.659574a16.340426 16.340426 0 0 0 0 32.680852h49.483166c2.461957 47.208579 15.512511 93.550026 38.179949 134.941412a16.336068 16.336068 0 0 0 22.181583 6.483881c0.135081-0.074077 0.254911-0.161226 0.385634-0.237481 7.614638-4.446774 10.357651-14.161702 6.096068-21.941923C240.740221 606.22543 228.765957 559.341481 228.765957 512c0-156.175251 127.058791-283.234043 283.234043-283.234043 47.341481 0 94.22543 11.974264 135.584136 34.624273 7.7824 4.261583 17.49297 1.51857 21.939745-6.089532 0.078434-0.132902 0.167762-0.257089 0.241838-0.39217a16.342604 16.342604 0 0 0-6.483881-22.181583c-41.389209-22.669617-87.730655-35.72017-134.943591-38.179949V147.06383a16.340426 16.340426 0 0 0-32.680851 0v49.439591C334.440579 204.758604 204.758604 334.440579 196.503421 495.659574H147.06383z" p-id="3895"/></svg>